<?xml version="1.0" encoding="UTF-8"?>
<svg version="1.1" viewBox="0 0 752 752" xmlns="http://www.w3.org/2000/svg">
 <path d="m540.34 211.67c-8.5234-8.5234-21.785-8.5234-30.309 0l-134.03 134.02-134.02-134.02c-8.5234-8.5234-21.785-8.5234-30.309 0-8.5234 8.5234-8.5234 21.785 0 30.309l134.02 134.02-134.02 134.02c-8.5234 8.5234-8.5234 21.785 0 30.309 4.2617 4.2617 9.4727 6.1562 15.156 6.1562 5.6836 0 10.891-1.8945 15.156-6.1562l134.02-134.02 134.02 134.02c4.2617 4.2617 9.4727 6.1562 15.156 6.1562 5.6836 0 10.891-1.8945 15.156-6.1562 8.5234-8.5234 8.5234-21.785 0-30.309l-134.02-134.03 134.02-134.02c8.0508-8.5234 8.0508-21.785 0-30.309z" fill="#01756b"/>
</svg>
