<svg width="22" height="22" viewBox="0 0 22 22" fill="none" xmlns="http://www.w3.org/2000/svg">
<path d="M11.0043 5.85928C8.02305 5.85928 5.61836 8.26397 5.61836 11.2452C5.61836 14.2265 8.02305 16.6312 11.0043 16.6312C13.9855 16.6312 16.3902 14.2265 16.3902 11.2452C16.3902 8.26397 13.9855 5.85928 11.0043 5.85928ZM11.0043 14.7468C9.07773 14.7468 7.50273 13.1765 7.50273 11.2452C7.50273 9.31397 9.07305 7.74365 11.0043 7.74365C12.9355 7.74365 14.5059 9.31397 14.5059 11.2452C14.5059 13.1765 12.9309 14.7468 11.0043 14.7468ZM17.8668 5.63897C17.8668 6.3374 17.3043 6.89522 16.6105 6.89522C15.9121 6.89522 15.3543 6.33272 15.3543 5.63897C15.3543 4.94522 15.9168 4.38271 16.6105 4.38271C17.3043 4.38271 17.8668 4.94522 17.8668 5.63897ZM21.434 6.91397C21.3543 5.23115 20.9699 3.74053 19.7371 2.5124C18.509 1.28428 17.0184 0.899902 15.3355 0.815527C13.6012 0.71709 8.40273 0.71709 6.66836 0.815527C4.99023 0.895215 3.49961 1.27959 2.2668 2.50771C1.03398 3.73584 0.654297 5.22646 0.569922 6.90928C0.471484 8.64365 0.471484 13.8421 0.569922 15.5765C0.649609 17.2593 1.03398 18.7499 2.2668 19.978C3.49961 21.2062 4.98555 21.5905 6.66836 21.6749C8.40273 21.7733 13.6012 21.7733 15.3355 21.6749C17.0184 21.5952 18.509 21.2108 19.7371 19.978C20.9652 18.7499 21.3496 17.2593 21.434 15.5765C21.5324 13.8421 21.5324 8.64834 21.434 6.91397ZM19.1934 17.4374C18.8277 18.3562 18.1199 19.064 17.1965 19.4343C15.8137 19.9827 12.5324 19.8562 11.0043 19.8562C9.47617 19.8562 6.19023 19.978 4.81211 19.4343C3.89336 19.0687 3.18555 18.3608 2.81523 17.4374C2.2668 16.0546 2.39336 12.7733 2.39336 11.2452C2.39336 9.71709 2.27148 6.43115 2.81523 5.05303C3.18086 4.13428 3.88867 3.42646 4.81211 3.05615C6.19492 2.50771 9.47617 2.63428 11.0043 2.63428C12.5324 2.63428 15.8184 2.5124 17.1965 3.05615C18.1152 3.42178 18.823 4.12959 19.1934 5.05303C19.7418 6.43584 19.6152 9.71709 19.6152 11.2452C19.6152 12.7733 19.7418 16.0593 19.1934 17.4374Z" fill="#DE11CF"/>
</svg>
