<svg width="24" height="24" viewBox="0 0 24 24" fill="none" xmlns="http://www.w3.org/2000/svg">
<path d="M11.875 0.625C5.45467 0.625 0.25 5.82967 0.25 12.25C0.25 18.6703 5.45467 23.875 11.875 23.875C18.2953 23.875 23.5 18.6703 23.5 12.25C23.5 5.82967 18.2953 0.625 11.875 0.625ZM17.2634 8.53094C17.0884 10.3691 16.3315 14.8299 15.9462 16.8888C15.7832 17.7599 15.4623 18.052 15.1517 18.0805C14.4767 18.1427 13.964 17.6344 13.3102 17.2058C12.287 16.5351 11.709 16.1176 10.7158 15.4631C9.56809 14.7068 10.3121 14.2913 10.9662 13.6116C11.1374 13.4338 14.1119 10.7283 14.1694 10.4829C14.1766 10.4522 14.1835 10.3375 14.1153 10.2774C14.0472 10.2172 13.9471 10.2376 13.8746 10.2539C13.772 10.2772 12.1375 11.3576 8.97114 13.495C8.50723 13.8135 8.08702 13.9687 7.71048 13.9606C7.29541 13.9517 6.49698 13.726 5.90341 13.533C5.17539 13.2963 4.59677 13.1712 4.64716 12.7693C4.67341 12.56 4.96169 12.3459 5.512 12.1271C8.90094 10.6506 11.1608 9.6772 12.2914 9.20683C15.5198 7.864 16.1906 7.63075 16.6279 7.62297C16.7241 7.62137 16.9391 7.64519 17.0784 7.7582C17.171 7.83871 17.2301 7.95106 17.2438 8.07302C17.2674 8.22445 17.274 8.37805 17.2634 8.53094Z" fill="#009ACC"/>
</svg>
