<svg width="25" height="20" viewBox="0 0 25 20" fill="none" xmlns="http://www.w3.org/2000/svg">
<path d="M22.033 5.36175C22.0482 5.57494 22.0482 5.78817 22.0482 6.00136C22.0482 12.5039 17.099 19.9963 8.0533 19.9963C5.26648 19.9963 2.67767 19.1891 0.5 17.7882C0.895953 17.8338 1.27663 17.8491 1.68781 17.8491C3.98727 17.8491 6.10405 17.0724 7.79441 15.7476C5.63197 15.7019 3.81978 14.2856 3.19541 12.3364C3.5 12.382 3.80455 12.4125 4.12438 12.4125C4.56598 12.4125 5.00764 12.3516 5.41878 12.245C3.16498 11.7881 1.47458 9.80845 1.47458 7.41759V7.3567C2.12938 7.72219 2.89086 7.95061 3.69791 7.98103C2.37303 7.09777 1.50505 5.59017 1.50505 3.88458C1.50505 2.97089 1.74866 2.13333 2.17508 1.40236C4.59641 4.38713 8.23602 6.33633 12.3172 6.54956C12.2411 6.18408 12.1954 5.80341 12.1954 5.42269C12.1954 2.712 14.3883 0.503906 17.1141 0.503906C18.5304 0.503906 19.8095 1.09781 20.708 2.0572C21.8197 1.84402 22.8857 1.43283 23.8299 0.869391C23.4643 2.01155 22.6877 2.97094 21.6674 3.58003C22.6573 3.47348 23.6167 3.19931 24.4999 2.81864C23.83 3.79322 22.9924 4.6612 22.033 5.36175Z" fill="#00ACE2"/>
</svg>
